HIERARCHY
ROOT Hips
{
    OFFSET 0.000000 0.000000 0.000000
    CHANNELS 6 Xposition Yposition Zposition Zrotation Yrotation Xrotation
    JOINT Chest
    {
        OFFSET 0.000000 1.634758 -0.000000
        CHANNELS 3 Zrotation Yrotation Xrotation
        JOINT Chest2
        {
            OFFSET 0.000000 2.197341 0.000000
            CHANNELS 3 Zrotation Yrotation Xrotation
            JOINT Neck
            {
                OFFSET 0.000000 0.961544 0.000000
                CHANNELS 3 Zrotation Yrotation Xrotation
                JOINT Head
                {
                    OFFSET 0.000000 0.632542 -0.032565
                    CHANNELS 3 Zrotation Yrotation Xrotation
                    End Site
                    {
                        OFFSET -0.000001 0.439502 2.922845
                    }
                }
            }
            JOINT LeftCollar
            {
                OFFSET 0.167536 0.778237 -0.168280
                CHANNELS 3 Zrotation Yrotation Xrotation
                JOINT LeftShoulder
                {
                    OFFSET 0.831514 -0.002900 0.006458
                    CHANNELS 3 Zrotation Yrotation Xrotation
                    JOINT LeftElbow
                    {
                        OFFSET 2.272872 -0.026639 0.059314
                        CHANNELS 3 Zrotation Yrotation Xrotation
                        JOINT LeftWrist
                        {
                            OFFSET 2.081982 -0.024402 0.054333
                            CHANNELS 3 Zrotation Yrotation Xrotation
                            JOINT LeftHandThumb1
                            {
                                OFFSET 0.218903 -0.128645 0.283837
                                CHANNELS 3 Zrotation Yrotation Xrotation
                                JOINT LeftHandThumb2
                                {
                                    OFFSET 0.137157 -0.025101 0.077902
                                    CHANNELS 3 Zrotation Yrotation Xrotation
                                    JOINT LeftHandThumb3
                                    {
                                        OFFSET 0.165861 -0.067014 0.039226
                                        CHANNELS 3 Zrotation Yrotation Xrotation
                                        End Site
                                        {
                                            OFFSET 0.241157 -0.045065 0.107930
                                        }
                                    }
                                }
                            }
                            JOINT LeftHandFore1
                            {
                                OFFSET 0.767340 -0.016076 0.196678
                                CHANNELS 3 Zrotation Yrotation Xrotation
                                JOINT LeftHandFore2
                                {
                                    OFFSET 0.215173 -0.024035 0.010864
                                    CHANNELS 3 Zrotation Yrotation Xrotation
                                    JOINT LeftHandFore3
                                    {
                                        OFFSET 0.127998 -0.018363 0.006493
                                        CHANNELS 3 Zrotation Yrotation Xrotation
                                        End Site
                                        {
                                            OFFSET 0.191872 -0.022849 0.005461
                                        }
                                    }
                                }
                            }
                            JOINT LeftHandMiddle1
                            {
                                OFFSET 0.709887 -0.008320 0.018526
                                CHANNELS 3 Zrotation Yrotation Xrotation
                                JOINT LeftHandMiddle2
                                {
                                    OFFSET 0.243305 -0.028680 0.006624
                                    CHANNELS 3 Zrotation Yrotation Xrotation
                                    JOINT LeftHandMiddle3
                                    {
                                        OFFSET 0.145223 -0.016669 0.003951
                                        CHANNELS 3 Zrotation Yrotation Xrotation
                                        End Site
                                        {
                                            OFFSET 0.233621 -0.031666 0.006995
                                        }
                                    }
                                }
                            }
                            JOINT LeftHandRing1
                            {
                                OFFSET 0.743817 -0.005823 -0.153668
                                CHANNELS 3 Zrotation Yrotation Xrotation
                                JOINT LeftHandRing2
                                {
                                    OFFSET 0.349394 -0.050632 -0.009675
                                    CHANNELS 3 Zrotation Yrotation Xrotation
                                    JOINT LeftHandRing3
                                    {
                                        OFFSET 0.134332 -0.023631 0.001421
                                        CHANNELS 3 Zrotation Yrotation Xrotation
                                        End Site
                                        {
                                            OFFSET 0.116893 -0.027460 0.001278
                                        }
                                    }
                                }
                            }
                            JOINT LeftHandLittle1
                            {
                                OFFSET 0.689408 -0.053302 -0.308304
                                CHANNELS 3 Zrotation Yrotation Xrotation
                                JOINT LeftHandLittle2
                                {
                                    OFFSET 0.193251 -0.018757 -0.018874
                                    CHANNELS 3 Zrotation Yrotation Xrotation
                                    JOINT LeftHandLittle3
                                    {
                                        OFFSET 0.116994 -0.025997 -0.011519
                                        CHANNELS 3 Zrotation Yrotation Xrotation
                                        End Site
                                        {
                                            OFFSET 0.189726 -0.012367 -0.011818
                                        }
                                    }
                                }
                            }
                        }
                    }
                }
            }
            JOINT RightCollar
            {
                OFFSET -0.167536 0.778237 -0.168280
                CHANNELS 3 Zrotation Yrotation Xrotation
                JOINT RightShoulder
                {
                    OFFSET -0.831514 -0.002900 0.006457
                    CHANNELS 3 Zrotation Yrotation Xrotation
                    JOINT RightElbow
                    {
                        OFFSET -2.272872 -0.026639 0.059313
                        CHANNELS 3 Zrotation Yrotation Xrotation
                        JOINT RightWrist
                        {
                            OFFSET -2.081982 -0.024402 0.054331
                            CHANNELS 3 Zrotation Yrotation Xrotation
                            JOINT RightHandThumb1
                            {
                                OFFSET -0.218911 -0.128571 0.283837
                                CHANNELS 3 Zrotation Yrotation Xrotation
                                JOINT RightHandThumb2
                                {
                                    OFFSET -0.137157 -0.025101 0.077902
                                    CHANNELS 3 Zrotation Yrotation Xrotation
                                    JOINT RightHandThumb3
                                    {
                                        OFFSET -0.165861 -0.067014 0.039226
                                        CHANNELS 3 Zrotation Yrotation Xrotation
                                        End Site
                                        {
                                            OFFSET -0.229436 -0.065997 0.121819
                                        }
                                    }
                                }
                            }
                            JOINT RightHandFore1
                            {
                                OFFSET -0.767344 -0.015991 0.196679
                                CHANNELS 3 Zrotation Yrotation Xrotation
                                JOINT RightHandFore2
                                {
                                    OFFSET -0.215182 -0.023988 0.010864
                                    CHANNELS 3 Zrotation Yrotation Xrotation
                                    JOINT RightHandFore3
                                    {
                                        OFFSET -0.127999 -0.018333 0.006493
                                        CHANNELS 3 Zrotation Yrotation Xrotation
                                        End Site
                                        {
                                            OFFSET -0.191454 -0.022769 0.013914
                                        }
                                    }
                                }
                            }
                            JOINT RightHandMiddle1
                            {
                                OFFSET -0.709887 -0.008302 0.018525
                                CHANNELS 3 Zrotation Yrotation Xrotation
                                JOINT RightHandMiddle2
                                {
                                    OFFSET -0.243299 -0.028704 0.006624
                                    CHANNELS 3 Zrotation Yrotation Xrotation
                                    JOINT RightHandMiddle3
                                    {
                                        OFFSET -0.145226 -0.016685 0.003951
                                        CHANNELS 3 Zrotation Yrotation Xrotation
                                        End Site
                                        {
                                            OFFSET -0.233653 -0.031672 0.005780
                                        }
                                    }
                                }
                            }
                            JOINT RightHandRing1
                            {
                                OFFSET -0.743819 -0.005785 -0.153669
                                CHANNELS 3 Zrotation Yrotation Xrotation
                                JOINT RightHandRing2
                                {
                                    OFFSET -0.349398 -0.050607 -0.009675
                                    CHANNELS 3 Zrotation Yrotation Xrotation
                                    JOINT RightHandRing3
                                    {
                                        OFFSET -0.134041 -0.023657 -0.008853
                                        CHANNELS 3 Zrotation Yrotation Xrotation
                                        End Site
                                        {
                                            OFFSET -0.116640 -0.027483 -0.007746
                                        }
                                    }
                                }
                            }
                            JOINT RightHandLittle1
                            {
                                OFFSET -0.689403 -0.053298 -0.308303
                                CHANNELS 3 Zrotation Yrotation Xrotation
                                JOINT RightHandLittle2
                                {
                                    OFFSET -0.193254 -0.018752 -0.018875
                                    CHANNELS 3 Zrotation Yrotation Xrotation
                                    JOINT RightHandLittle3
                                    {
                                        OFFSET -0.116992 -0.025993 -0.011520
                                        CHANNELS 3 Zrotation Yrotation Xrotation
                                        End Site
                                        {
                                            OFFSET -0.188440 -0.012318 -0.025042
                                        }
                                    }
                                }
                            }
                        }
                    }
                }
            }
        }
    }
    JOINT LeftHip
    {
        OFFSET 0.685143 0.673822 -0.044491
        CHANNELS 3 Zrotation Yrotation Xrotation
        JOINT LeftKnee
        {
            OFFSET 0.085364 -3.750208 0.017676
            CHANNELS 3 Zrotation Yrotation Xrotation
            JOINT LeftAnkle
            {
                OFFSET 0.094583 -4.155206 0.019585
                CHANNELS 3 Zrotation Yrotation Xrotation
                JOINT LeftToe
                {
                    OFFSET -0.000000 -0.395925 0.621478
                    CHANNELS 3 Zrotation Yrotation Xrotation
                    End Site
                    {
                        OFFSET -0.000000 -0.077878 0.321152
                    }
                }
            }
        }
    }
    JOINT RightHip
    {
        OFFSET -0.685143 0.673822 -0.044492
        CHANNELS 3 Zrotation Yrotation Xrotation
        JOINT RightKnee
        {
            OFFSET -0.085364 -3.750208 0.017677
            CHANNELS 3 Zrotation Yrotation Xrotation
            JOINT RightAnkle
            {
                OFFSET -0.094583 -4.155206 0.019585
                CHANNELS 3 Zrotation Yrotation Xrotation
                JOINT RightToe
                {
                    OFFSET -0.000000 -0.395925 0.621478
                    CHANNELS 3 Zrotation Yrotation Xrotation
                    End Site
                    {
                        OFFSET -0.000000 -0.077878 0.321152
                    }
                }
            }
        }
    }
}
MOTION
Frames: 5
Frame Time: 0.033333
-0.215692 8.414254 5.673993 171.655731 6.881227 -176.218201 -7.238551 -0.195256 -9.525702 1.485771 -0.061461 -4.792335 -6.508116 3.307765 3.713572 -0.303226 5.869263 9.220141 -1.010340 -10.074193 -0.039485 -32.422829 -23.693304 -7.178300 173.550949 -83.351982 -174.265030 -29.188995 4.667779 -14.138921 -0.000009 0.000007 -0.000003 0.000000 -0.000000 0.000002 -0.000002 -0.000000 -0.000005 -1.118779 -9.849834 6.911511 0.000000 -0.000002 0.000005 -0.000002 -0.000002 -0.000002 -0.068361 -4.867513 3.513347 0.000002 0.000003 -0.000002 -0.000002 -0.000003 0.000000 -0.668909 4.317976 -4.139299 0.000005 -0.000002 -0.000002 0.000000 -0.000002 -0.000005 -2.086201 8.652238 -8.217206 0.000000 -0.000000 -0.000002 0.000000 -0.000000 -0.000004 0.012958 9.078724 -0.031218 28.413675 21.595348 -8.992397 -177.420578 69.503883 -178.217621 21.528492 -4.241649 -13.117873 -0.000006 -0.000010 -0.000005 -0.000002 -0.000000 0.000003 0.000004 0.000005 0.000002 -3.045985 11.913978 -0.284360 -0.000003 -0.000003 0.000003 -0.000002 -0.000002 -0.000002 -0.752673 5.875905 1.101537 -0.000001 -0.000003 -0.000001 -0.000003 -0.000002 -0.000001 0.262619 -5.060578 -3.235369 0.000001 -0.000000 0.000002 0.000003 0.000005 0.000003 1.375993 -9.719460 -7.046683 -0.000003 -0.000003 -0.000002 0.000002 0.000002 -0.000002 -14.577954 -3.417264 -2.117902 -0.000000 -0.000001 0.000000 8.742751 9.514594 -4.191932 -0.000000 -0.000001 -0.000006 -23.949465 -5.209692 -16.633205 -0.072953 -0.430107 19.256159 0.466516 -0.759784 9.098156 -0.202106 -3.114642 -9.916348
-0.131440 8.405761 5.655185 173.416473 5.640858 -176.852798 -5.813751 0.062105 -8.643724 1.221150 -0.085167 -4.724998 -4.459500 2.416974 4.355902 -0.215763 4.183588 10.406771 -1.078006 -8.933146 -0.035604 -33.254482 -18.754963 -5.582350 177.045731 -72.983963 -177.821716 -27.943155 5.239941 -13.876925 0.000003 -0.000003 -0.000003 0.000003 -0.000005 0.000000 0.000001 0.000002 0.000000 -1.118765 -9.849845 6.911512 0.000001 0.000003 0.000001 -0.000001 -0.000002 0.000002 -0.068346 -4.867518 3.513356 -0.000001 0.000002 -0.000003 0.000001 -0.000000 -0.000001 -0.668906 4.317971 -4.139284 0.000002 0.000005 -0.000002 0.000002 0.000002 0.000002 -2.086185 8.652236 -8.217196 -0.000002 -0.000002 0.000001 0.000000 0.000002 -0.000001 0.222290 8.056506 -0.026896 29.582472 17.962051 -6.768186 -177.960831 60.752705 -178.811996 16.426050 -6.099418 -13.371514 -0.000016 0.000005 -0.000015 0.000002 -0.000000 0.000006 0.000000 -0.000002 -0.000002 -3.046000 11.913987 -0.284359 -0.000003 -0.000002 -0.000003 0.000002 -0.000000 -0.000001 -0.752681 5.875924 1.101536 0.000001 -0.000000 0.000001 0.000001 -0.000002 0.000000 0.262608 -5.060565 -3.235367 0.000003 0.000005 -0.000000 0.000000 0.000003 0.000000 1.375982 -9.719454 -7.046683 -0.000002 -0.000002 0.000002 -0.000001 0.000003 0.000003 -12.500720 -3.366218 -1.079061 0.000001 0.000001 0.000000 8.108257 8.775357 -5.084732 0.000000 -0.000000 -0.000003 -17.755840 -2.541892 -22.749138 -0.236334 -0.748728 35.038097 -2.077596 -3.107552 2.318170 -0.210035 -2.637655 -9.076431
-0.059569 8.400858 5.635779 174.579208 4.384563 -177.502777 -4.831184 0.082589 -7.822389 0.492931 -0.042795 -4.733081 -2.671009 1.557994 4.877425 -0.142138 2.758834 11.352853 -1.096112 -7.970583 -0.029873 -33.335659 -14.248102 -4.346305 177.801636 -64.050545 -178.632187 -26.728056 5.768975 -13.602002 -0.000007 -0.000000 -0.000009 0.000002 0.000005 -0.000002 0.000000 0.000002 -0.000002 -1.118770 -9.849840 6.911510 0.000001 -0.000000 0.000004 0.000001 -0.000002 0.000002 -0.068355 -4.867518 3.513350 0.000000 -0.000002 -0.000001 0.000000 0.000002 0.000000 -0.668910 4.317981 -4.139296 0.000002 -0.000002 0.000000 0.000000 -0.000000 -0.000005 -2.086195 8.652242 -8.217200 0.000002 0.000002 -0.000001 -0.000003 -0.000005 -0.000004 0.446966 7.070062 -0.023823 32.070648 15.054357 -4.667485 -178.203354 53.552750 -179.100632 11.763880 -7.770114 -13.302402 -0.000004 0.000005 -0.000013 0.000002 -0.000002 0.000007 0.000005 0.000005 -0.000003 -3.045987 11.913999 -0.284365 0.000001 0.000003 0.000002 0.000001 -0.000000 0.000001 -0.752666 5.875927 1.101530 -0.000000 -0.000002 -0.000000 0.000001 -0.000002 -0.000001 0.262620 -5.060560 -3.235374 -0.000002 -0.000003 0.000001 -0.000001 0.000002 -0.000003 1.375995 -9.719446 -7.046691 -0.000002 -0.000002 0.000004 -0.000002 -0.000007 0.000000 -11.022753 -3.316290 -0.141553 0.000000 -0.000001 0.000000 7.533268 7.927176 -5.901698 0.000000 -0.000000 0.000004 -11.565236 -0.590073 -26.257965 -0.407290 -0.946798 46.553951 -4.492223 -5.859705 -1.818286 -0.212717 -1.557663 -5.853639
0.003563 8.398003 5.616675 175.321747 3.177000 -178.137360 -4.186449 -0.046086 -7.063787 -0.483693 0.035823 -4.782791 -1.253288 0.825457 5.267563 -0.086776 1.685127 12.063603 -1.074649 -7.256567 -0.023735 -32.970543 -10.715755 -3.396044 178.100418 -57.030548 -178.975235 -25.732056 6.205568 -13.344764 -0.000004 0.000002 -0.000003 0.000003 0.000007 0.000002 -0.000003 -0.000003 -0.000002 -1.118767 -9.849828 6.911518 0.000000 -0.000002 -0.000001 -0.000002 -0.000003 0.000003 -0.068350 -4.867510 3.513348 -0.000003 -0.000000 -0.000001 0.000000 -0.000002 -0.000004 -0.668907 4.317976 -4.139298 0.000000 0.000003 0.000003 0.000001 -0.000002 0.000003 -2.086193 8.652243 -8.217194 -0.000003 -0.000005 0.000003 0.000002 0.000003 -0.000003 0.645231 6.209493 -0.022868 34.355377 12.714378 -2.598926 -178.327362 48.096775 -179.260864 8.093863 -9.100382 -13.061389 -0.000013 0.000005 -0.000015 0.000000 -0.000002 0.000004 0.000003 0.000003 0.000005 -3.045994 11.913994 -0.284352 0.000003 0.000002 0.000001 0.000003 0.000003 0.000002 -0.752678 5.875923 1.101543 -0.000002 -0.000000 -0.000003 0.000003 -0.000003 0.000000 0.262608 -5.060572 -3.235359 0.000001 -0.000003 0.000001 -0.000003 0.000003 -0.000003 1.375997 -9.719446 -7.046680 0.000000 -0.000003 -0.000003 -0.000001 -0.000000 0.000001 -9.966680 -3.267718 0.695940 -0.000000 -0.000000 0.000000 7.024142 7.066682 -6.576550 0.000000 -0.000001 0.000002 -7.471617 0.434578 -26.008553 -0.478727 -1.009672 50.736538 -5.454053 -7.582060 -1.527466 -0.199357 -1.569749 -6.392196
0.062718 8.396204 5.598783 175.851746 2.082790 -178.725708 -3.745918 -0.240604 -6.378489 -1.468532 0.121545 -4.850219 -0.317801 0.308023 5.513862 -0.053350 1.036237 12.532656 -1.029994 -6.849775 -0.018708 -32.410465 -8.650002 -2.712353 178.232224 -52.428650 -179.136871 -25.143930 6.498612 -13.143093 -0.000012 -0.000002 -0.000007 0.000002 0.000003 -0.000004 0.000000 0.000005 0.000001 -1.118776 -9.849839 6.911510 -0.000002 0.000002 0.000002 -0.000000 -0.000002 0.000001 -0.068360 -4.867516 3.513343 0.000001 -0.000002 0.000001 0.000000 -0.000002 -0.000001 -0.668913 4.317966 -4.139299 0.000000 0.000002 0.000000 -0.000003 -0.000000 -0.000001 -2.086199 8.652233 -8.217202 0.000005 0.000002 0.000004 0.000002 0.000002 0.000001 0.779712 5.567627 -0.023712 36.000103 10.997547 -1.094996 -178.389679 44.572964 -179.347290 5.985054 -9.967171 -12.855505 -0.000011 -0.000002 -0.000016 -0.000002 0.000002 0.000005 0.000000 0.000002 0.000004 -3.046003 11.913987 -0.284356 0.000002 0.000003 -0.000000 -0.000010 0.000002 -0.000003 -0.752676 5.875917 1.101533 0.000001 0.000002 0.000001 -0.000004 -0.000000 -0.000002 0.262614 -5.060568 -3.235365 0.000001 -0.000000 -0.000003 0.000004 -0.000003 0.000005 1.375984 -9.719460 -7.046686 -0.000002 -0.000000 0.000005 -0.000003 -0.000010 -0.000002 -9.118127 -3.220914 1.429159 0.000000 0.000001 -0.000000 6.579502 6.279905 -7.048828 0.000000 -0.000001 -0.000001 -5.128658 0.491541 -22.143415 -0.418428 -0.957224 47.224350 -5.898276 -7.761948 -7.871923 -0.137079 -0.820254 -4.143064
